<svg width="44" height="42" viewBox="0 0 44 42" fill="none" xmlns="http://www.w3.org/2000/svg">
<path d="M37.638 20.0505C37.6441 22.3517 37.0915 24.6218 36.0252 26.6759C34.7609 29.1373 32.8172 31.2076 30.4118 32.6549C28.0065 34.1022 25.2345 34.8694 22.4064 34.8704C20.0412 34.8764 17.7081 34.3388 15.5969 33.3012L5.38281 36.6139L8.78752 26.6759C7.72119 24.6218 7.1686 22.3517 7.17476 20.0505C7.17586 17.2988 7.96432 14.6017 9.45183 12.2614C10.9393 9.92106 13.0672 8.0299 15.5969 6.79973C17.7081 5.76221 20.0412 5.22456 22.4064 5.23056H23.3023C27.0374 5.43105 30.5652 6.96494 33.2103 9.53855C35.8554 12.1122 37.4319 15.5446 37.638 19.1787V20.0505Z" fill="#F7D6FF"/>
</svg>
