<svg width="44" height="42" viewBox="0 0 44 42" fill="none" xmlns="http://www.w3.org/2000/svg">
<path d="M37.6311 20.0505C37.6373 22.3517 37.0847 24.6218 36.0184 26.6759C34.754 29.1373 32.8103 31.2076 30.405 32.6549C27.9996 34.1022 25.2277 34.8693 22.3995 34.8704C20.0344 34.8764 17.7012 34.3388 15.5901 33.3012L5.37598 36.6139L8.78069 26.6759C7.71435 24.6218 7.16176 22.3517 7.16793 20.0505C7.16902 17.2988 7.95748 14.6017 9.445 12.2614C10.9325 9.92105 13.0603 8.02989 15.5901 6.79972C17.7012 5.7622 20.0344 5.22455 22.3995 5.23055H23.2955C27.0306 5.43104 30.5584 6.96494 33.2035 9.53854C35.8486 12.1122 37.4251 15.5446 37.6311 19.1787V20.0505Z" stroke="#F7D6FF" stroke-width="2.32469" stroke-linecap="round" stroke-linejoin="round"/>
</svg>
