<svg width="44" height="42" viewBox="0 0 44 42" fill="none" xmlns="http://www.w3.org/2000/svg">
<path d="M33.4787 29.2386L27.3583 25.6045L29.6657 21.7401C30.2036 20.8377 30.4858 19.8266 30.4867 18.7991V12.6815C30.4867 10.401 29.4949 8.21384 27.7297 6.60124C25.9644 4.98865 23.5701 4.0827 21.0736 4.0827C18.5772 4.0827 16.1829 4.98865 14.4176 6.60124C12.6523 8.21384 11.6606 10.401 11.6606 12.6815V18.7991C11.6615 19.8266 11.9437 20.8377 12.4816 21.7402L14.789 25.6045L8.66862 29.2386C7.72799 29.7948 6.9551 30.5577 6.42065 31.4574C5.8862 32.357 5.60727 33.3648 5.60939 34.3884V40.9348H36.5379V34.3884C36.54 33.3648 36.2611 32.357 35.7266 31.4574C35.1922 30.5577 34.4193 29.7949 33.4787 29.2386ZM33.8485 38.478H8.29882V34.3884C8.29757 33.7742 8.46494 33.1696 8.78562 32.6297C9.1063 32.0899 9.57006 31.6322 10.1344 31.2985L18.3423 26.4249L14.8426 20.5638C14.5199 20.0223 14.3506 19.4156 14.3501 18.7991V12.6815C14.3501 11.0526 15.0584 9.49032 16.3194 8.33847C17.5803 7.18662 19.2904 6.53951 21.0736 6.53951C22.8569 6.53951 24.567 7.18662 25.8279 8.33847C27.0889 9.49032 27.7972 11.0526 27.7972 12.6815V18.7991C27.7967 19.4156 27.6274 20.0223 27.3047 20.5638L23.8051 26.4249L32.0131 31.2985C32.5774 31.6322 33.0412 32.09 33.3618 32.6298C33.6824 33.1696 33.8498 33.7742 33.8485 34.3884V38.478Z" fill="#F7D6FF"/>
</svg>
