<svg width="44" height="42" viewBox="0 0 44 42" fill="none" xmlns="http://www.w3.org/2000/svg">
<path d="M33.4923 29.2386L27.3719 25.6045L29.6794 21.7401C30.2173 20.8377 30.4995 19.8266 30.5003 18.7991V12.6815C30.5003 10.401 29.5086 8.21385 27.7433 6.60125C25.9781 4.98866 23.5838 4.08271 21.0873 4.08271C18.5908 4.08271 16.1966 4.98866 14.4313 6.60125C12.666 8.21385 11.6743 10.401 11.6743 12.6815V18.7991C11.6751 19.8267 11.9573 20.8377 12.4952 21.7402L14.8027 25.6045L8.68229 29.2386C7.74167 29.7949 6.96877 30.5577 6.43432 31.4574C5.89987 32.357 5.62094 33.3648 5.62306 34.3884V40.9349H36.5516V34.3884C36.5537 33.3648 36.2747 32.3571 35.7403 31.4574C35.2059 30.5577 34.433 29.7949 33.4923 29.2386Z" fill="#F7D6FF"/>
</svg>
