<svg width="44" height="42" viewBox="0 0 44 42" fill="none" xmlns="http://www.w3.org/2000/svg">
<path d="M7.16789 5.23056H35.8391C36.7896 5.23056 37.7012 5.59794 38.3733 6.25189C39.0454 6.90584 39.423 7.79278 39.423 8.7176V19.1787C39.423 23.8028 37.5351 28.2375 34.1745 31.5073C30.814 34.777 26.2561 36.6139 21.5035 36.6139C19.1503 36.6139 16.8201 36.163 14.646 35.2868C12.4719 34.4106 10.4965 33.1263 8.83249 31.5073C5.47193 28.2375 3.58398 23.8028 3.58398 19.1787V8.7176C3.58398 7.79278 3.96157 6.90584 4.63369 6.25189C5.3058 5.59794 6.21738 5.23056 7.16789 5.23056Z" fill="#F7D6FF" stroke="#F7D6FF" stroke-width="2.32469" stroke-linecap="round" stroke-linejoin="round"/>
<path d="M14.3354 17.4352L21.5033 24.4093L28.6711 17.4352" stroke="#572462" stroke-width="2.32469" stroke-linecap="round" stroke-linejoin="round"/>
</svg>
