<svg width="42" height="41" viewBox="0 0 42 41" fill="none" xmlns="http://www.w3.org/2000/svg">
<path d="M7 5.10809H35C35.9283 5.10809 36.8185 5.46688 37.4749 6.10551C38.1313 6.74415 38.5 7.61033 38.5 8.5135V18.7297C38.5 23.2456 36.6563 27.5765 33.3744 30.7696C30.0925 33.9628 25.6413 35.7567 21 35.7567C18.7019 35.7567 16.4262 35.3163 14.303 34.4606C12.1798 33.605 10.2507 32.3507 8.62563 30.7696C5.34374 27.5765 3.5 23.2456 3.5 18.7297V8.5135C3.5 7.61033 3.86875 6.74415 4.52513 6.10551C5.1815 5.46688 6.07174 5.10809 7 5.10809V5.10809Z" stroke="#F7D6FF" stroke-width="2.27027" stroke-linecap="round" stroke-linejoin="round"/>
<path d="M14 17.027L21 23.8378L28 17.027" stroke="#F7D6FF" stroke-width="2.27027" stroke-linecap="round" stroke-linejoin="round"/>
</svg>
