<svg width="48" height="47" viewBox="0 0 48 47" fill="none" xmlns="http://www.w3.org/2000/svg">
<path d="M17.6317 21.5417C19.181 21.5417 20.6955 21.0823 21.9836 20.2215C23.2718 19.3608 24.2758 18.1374 24.8687 16.706C25.4616 15.2747 25.6167 13.6996 25.3145 12.1801C25.0122 10.6606 24.2662 9.26484 23.1707 8.16933C22.0752 7.07382 20.6794 6.32777 19.1599 6.02552C17.6404 5.72327 16.0653 5.87839 14.634 6.47128C13.2026 7.06417 11.9792 8.06818 11.1185 9.35637C10.2578 10.6446 9.79834 12.159 9.79834 13.7083C9.79834 15.7859 10.6236 17.7783 12.0927 19.2473C13.5617 20.7164 15.5541 21.5417 17.6317 21.5417Z" fill="#F7D6FF"/>
<path d="M33.2983 25.4583C34.4603 25.4583 35.5962 25.1138 36.5623 24.4682C37.5285 23.8227 38.2815 22.9051 38.7261 21.8316C39.1708 20.7581 39.2871 19.5768 39.0605 18.4372C38.8338 17.2975 38.2742 16.2507 37.4526 15.4291C36.631 14.6074 35.5841 14.0479 34.4445 13.8212C33.3049 13.5945 32.1236 13.7109 31.0501 14.1555C29.9766 14.6002 29.059 15.3532 28.4135 16.3194C27.7679 17.2855 27.4233 18.4214 27.4233 19.5833C27.4233 21.1415 28.0423 22.6358 29.1441 23.7376C30.2459 24.8394 31.7402 25.4583 33.2983 25.4583Z" fill="#F7D6FF"/>
<path d="M41.1317 39.1668C41.6511 39.1668 42.1492 38.9604 42.5164 38.5932C42.8837 38.2259 43.09 37.7278 43.09 37.2084C43.0884 35.3782 42.5739 33.585 41.6048 32.0323C40.6357 30.4797 39.2509 29.2297 37.6074 28.4243C35.9638 27.6188 34.1275 27.2901 32.3066 27.4755C30.4858 27.6609 28.7533 28.3529 27.3058 29.473C25.3877 27.5624 22.9467 26.2625 20.2907 25.7374C17.6348 25.2122 14.8828 25.4852 12.3818 26.5221C9.88085 27.5589 7.7429 29.3131 6.23758 31.5634C4.73227 33.8137 3.927 36.4594 3.92334 39.1668C3.92334 39.6862 4.12966 40.1843 4.49692 40.5515C4.86418 40.9188 5.36229 41.1251 5.88167 41.1251H29.3817C29.9011 41.1251 30.3992 40.9188 30.7664 40.5515C31.1337 40.1843 31.34 39.6862 31.34 39.1668" fill="#F7D6FF"/>
</svg>
