<svg width="47" height="47" viewBox="0 0 47 47" fill="none" xmlns="http://www.w3.org/2000/svg">
<path d="M21.3379 19.2653C20.2388 19.9997 18.9467 20.3917 17.6248 20.3917C15.8523 20.3917 14.1524 19.6875 12.899 18.4342C11.6456 17.1808 10.9415 15.4809 10.9415 13.7083C10.9415 12.3865 11.3335 11.0943 12.0678 9.99528C12.8022 8.89621 13.846 8.03959 15.0672 7.53374C16.2885 7.0279 17.6323 6.89554 18.9287 7.15342C20.2251 7.4113 21.416 8.04783 22.3507 8.98251C23.2853 9.91719 23.9219 11.108 24.1798 12.4045C24.4376 13.7009 24.3053 15.0447 23.7994 16.2659C23.2936 17.4872 22.437 18.5309 21.3379 19.2653Z" stroke="#F7D6FF" stroke-width="2.3"/>
<path d="M35.9166 23.512C35.1395 24.0312 34.226 24.3083 33.2915 24.3083C32.0384 24.3083 30.8365 23.8105 29.9504 22.9244C29.0643 22.0383 28.5665 20.8365 28.5665 19.5833C28.5665 18.6488 28.8436 17.7353 29.3628 16.9583C29.882 16.1813 30.6199 15.5756 31.4833 15.218C32.3467 14.8604 33.2967 14.7668 34.2133 14.9491C35.1299 15.1315 35.9718 15.5815 36.6326 16.2423L37.4292 15.4457L36.6326 16.2423C37.2934 16.9031 37.7434 17.745 37.9257 18.6615C38.108 19.5781 38.0145 20.5281 37.6568 21.3915C37.2992 22.2549 36.6936 22.9928 35.9166 23.512Z" stroke="#F7D6FF" stroke-width="2.3"/>
<mask id="path-3-inside-1_123_1641" fill="white">
<path d="M41.1248 39.1668C41.6442 39.1668 42.1423 38.9605 42.5096 38.5932C42.8769 38.2259 43.0832 37.7278 43.0832 37.2085C43.0816 35.3782 42.5671 33.585 41.598 32.0323C40.6289 30.4797 39.244 29.2297 37.6005 28.4243C35.957 27.6188 34.1206 27.2902 32.2998 27.4755C30.4789 27.6609 28.7465 28.3529 27.299 29.473C25.3808 27.5624 22.9399 26.2625 20.2839 25.7374C17.628 25.2122 14.876 25.4853 12.375 26.5221C9.87402 27.5589 7.73606 29.3131 6.23075 31.5634C4.72543 33.8137 3.92017 36.4594 3.9165 39.1668C3.9165 39.6862 4.12283 40.1843 4.49009 40.5515C4.85735 40.9188 5.35545 41.1251 5.87484 41.1251H29.3748C29.8942 41.1251 30.3923 40.9188 30.7596 40.5515C31.1268 40.1843 31.3332 39.6862 31.3332 39.1668"/>
</mask>
<path d="M43.0832 37.2085H45.3832V37.2065L43.0832 37.2085ZM27.299 29.473L25.6759 31.1026L27.108 32.5291L28.7066 31.292L27.299 29.473ZM3.9165 39.1668L1.6165 39.1637V39.1668H3.9165ZM41.1248 41.4668C42.2542 41.4668 43.3373 41.0181 44.1359 40.2195L40.8832 36.9669C40.9473 36.9028 41.0342 36.8668 41.1248 36.8668V41.4668ZM44.1359 40.2195C44.9345 39.421 45.3832 38.3378 45.3832 37.2085H40.7832C40.7832 37.1178 40.8192 37.0309 40.8832 36.9669L44.1359 40.2195ZM45.3832 37.2065C45.3812 34.9463 44.7459 32.7319 43.5491 30.8145L39.6469 33.2501C40.3883 34.4381 40.782 35.8101 40.7832 37.2104L45.3832 37.2065ZM43.5491 30.8145C42.3524 28.8972 40.6422 27.3536 38.6127 26.359L36.5884 30.4896C37.8458 31.1059 38.9054 32.0622 39.6469 33.2501L43.5491 30.8145ZM38.6127 26.359C36.5831 25.3643 34.3154 24.9584 32.0668 25.1874L32.5327 29.7637C33.9259 29.6219 35.3309 29.8734 36.5884 30.4896L38.6127 26.359ZM32.0668 25.1874C29.8183 25.4163 27.6789 26.2708 25.8914 27.6541L28.7066 31.292C29.8141 30.435 31.1396 29.9055 32.5327 29.7637L32.0668 25.1874ZM28.9221 27.8435C26.6822 25.6123 23.8316 24.0943 20.7301 23.4811L19.8378 27.9937C22.0481 28.4307 24.0795 29.5125 25.6759 31.1026L28.9221 27.8435ZM20.7301 23.4811C17.6285 22.8678 14.4148 23.1866 11.4942 24.3974L13.2558 28.6467C15.3372 27.7839 17.6274 27.5566 19.8378 27.9937L20.7301 23.4811ZM11.4942 24.3974C8.57358 25.6082 6.07692 27.6567 4.31904 30.2846L8.14246 32.8422C9.39521 30.9695 11.1745 29.5096 13.2558 28.6467L11.4942 24.3974ZM4.31904 30.2846C2.56116 32.9125 1.62078 36.0021 1.61651 39.1637L6.2165 39.1699C6.21955 36.9168 6.88971 34.715 8.14246 32.8422L4.31904 30.2846ZM1.6165 39.1668C1.6165 40.2962 2.06515 41.3793 2.86374 42.1779L6.11643 38.9252C6.18051 38.9893 6.2165 39.0762 6.2165 39.1668H1.6165ZM2.86374 42.1779C3.66234 42.9765 4.74546 43.4251 5.87484 43.4251V38.8251C5.96545 38.8251 6.05235 38.8611 6.11643 38.9252L2.86374 42.1779ZM5.87484 43.4251H29.3748V38.8251H5.87484V43.4251ZM29.3748 43.4251C30.5042 43.4251 31.5873 42.9765 32.3859 42.1779L29.1332 38.9252C29.1973 38.8611 29.2842 38.8251 29.3748 38.8251V43.4251ZM32.3859 42.1779C33.1845 41.3793 33.6332 40.2962 33.6332 39.1668H29.0332C29.0332 39.0762 29.0692 38.9893 29.1332 38.9252L32.3859 42.1779Z" fill="#F7D6FF" mask="url(#path-3-inside-1_123_1641)"/>
</svg>
